<svg width="40" height="40" viewBox="0 0 40 40" fill="none" xmlns="http://www.w3.org/2000/svg">
<path d="M34.3346 1.33333H32.3346V0.666667C32.3346 0.2985 32.0361 0 31.668 0C31.2998 0 31.0013 0.2985 31.0013 0.666667V1.33333H29.668V0.666667C29.668 0.2985 29.3695 0 29.0013 0C28.6331 0 28.3346 0.2985 28.3346 0.666667V1.33333H27.0013V0.666667C27.0013 0.2985 26.7028 0 26.3346 0C25.9665 0 25.668 0.2985 25.668 0.666667V1.33333H24.3346V0.666667C24.3346 0.2985 24.0361 0 23.668 0C23.2998 0 23.0013 0.2985 23.0013 0.666667V1.33333H13.668V0.666667C13.668 0.2985 13.3695 0 13.0013 0C12.6331 0 12.3346 0.2985 12.3346 0.666667V1.33333H11.0013V0.666667C11.0013 0.2985 10.7028 0 10.3346 0C9.96647 0 9.66797 0.2985 9.66797 0.666667V1.33333H8.33463V0.666667C8.33463 0.2985 8.03614 0 7.66797 0C7.2998 0 7.0013 0.2985 7.0013 0.666667V1.33333H5.66797V0.666667C5.66797 0.2985 5.36947 0 5.0013 0C4.63314 0 4.33464 0.2985 4.33464 0.666667V1.33333H2.33464C1.96647 1.33333 1.66797 1.63183 1.66797 2V33.3333C1.66797 33.7015 1.96647 34 2.33464 34H21.7013C22.0695 34.0009 22.3687 33.7032 22.3696 33.335C22.3696 33.3189 22.3691 33.3027 22.368 33.2867L22.3626 33.2093C22.348 33.0293 22.3346 32.8493 22.3346 32.6667C22.3368 32.0068 22.4146 31.3494 22.5666 30.7073C22.715 30.0682 22.9366 29.4483 23.2273 28.86C23.256 28.8013 23.282 28.742 23.312 28.684C23.4006 28.5147 23.4966 28.3507 23.596 28.1873C23.6273 28.136 23.658 28.0833 23.6906 28.0327C23.7986 27.8633 23.9124 27.6982 24.032 27.5373C24.0566 27.5033 24.082 27.4707 24.1073 27.436C24.2406 27.2618 24.3791 27.0929 24.5226 26.9293L24.5426 26.9073C25.495 25.8445 26.692 25.0297 28.03 24.5333L28.1473 24.49C28.3273 24.4267 28.51 24.3707 28.6946 24.3187C28.778 24.2953 28.8626 24.274 28.9473 24.252C29.1033 24.2133 29.26 24.1773 29.4186 24.1473C29.552 24.1227 29.6906 24.104 29.8273 24.0853C29.948 24.068 30.0673 24.0487 30.1893 24.0373C30.456 24.012 30.7273 23.996 31.0013 23.996C31.182 23.996 31.36 24.01 31.5346 24.022L31.618 24.028C31.6233 24.028 31.6293 24.028 31.6346 24.028C32.4763 24.0913 33.3043 24.2765 34.0926 24.578C34.4357 24.7117 34.8221 24.5419 34.9558 24.1988C34.9858 24.1218 35.0012 24.04 35.0013 23.9573V2C35.0013 1.63183 34.7028 1.33333 34.3346 1.33333ZM22.3706 27.642C22.3473 27.68 22.3226 27.716 22.3013 27.754C22.2053 27.9227 22.1186 28.0967 22.0346 28.2713C21.9873 28.3673 21.9393 28.4627 21.8953 28.5607C21.8226 28.7213 21.7546 28.8853 21.6906 29.0507C21.684 29.0673 21.6766 29.0827 21.67 29.0993V26H23.5706C23.1162 26.5054 22.7142 27.0556 22.3706 27.642ZM25.668 24.2227C25.4386 24.368 25.2173 24.5227 25.0013 24.6853V24.6667H21.668V20.6667H25.668V24.2227ZM25.668 19.3333H21.668V15.3333H25.668V19.3333ZM25.668 14H21.668V10H25.668V14ZM31.0013 15.3333V19.3333H27.0013V15.3333H31.0013ZM27.0013 14V10H31.0013V14H27.0013ZM31.0026 22.6667C30.6906 22.6667 30.3826 22.6847 30.0773 22.7133C29.944 22.7253 29.8193 22.746 29.69 22.7627C29.5266 22.7847 29.364 22.8073 29.2033 22.8373C29.0426 22.8673 28.866 22.904 28.6993 22.9447C28.5973 22.9693 28.4953 22.9953 28.394 23.0233C28.194 23.078 27.994 23.1373 27.794 23.204C27.7686 23.2133 27.744 23.2233 27.7186 23.232C27.476 23.3167 27.236 23.4053 27.0026 23.5073V20.6667H31.0026V22.6667ZM33.668 23.0347C33.2304 22.912 32.7849 22.8195 32.3346 22.758V9.33333C32.3346 8.96517 32.0361 8.66667 31.668 8.66667H5.0013C4.63314 8.66667 4.33464 8.96517 4.33464 9.33333V30.6667C4.33464 31.0348 4.63314 31.3333 5.0013 31.3333H21.1006C21.0378 31.7751 21.0046 32.2205 21.0013 32.6667H3.0013V7.33333H33.668V23.0347ZM16.3346 24.6667V20.6667H20.3346V24.6667H16.3346ZM20.3346 26V30H16.3346V26H20.3346ZM16.3346 19.3333V15.3333H20.3346V19.3333H16.3346ZM16.3346 14V10H20.3346V14H16.3346ZM11.0013 24.6667V20.6667H15.0013V24.6667H11.0013ZM15.0013 26V30H11.0013V26H15.0013ZM11.0013 19.3333V15.3333H15.0013V19.3333H11.0013ZM11.0013 14V10H15.0013V14H11.0013ZM5.66797 24.6667V20.6667H9.66797V24.6667H5.66797ZM9.66797 26V30H5.66797V26H9.66797ZM5.66797 19.3333V15.3333H9.66797V19.3333H5.66797ZM5.66797 14V10H9.66797V14H5.66797ZM33.668 6H3.0013V2.66667H4.33464V3.33333C4.33464 3.7015 4.63314 4 5.0013 4C5.36947 4 5.66797 3.7015 5.66797 3.33333V2.66667H7.0013V3.33333C7.0013 3.7015 7.2998 4 7.66797 4C8.03614 4 8.33463 3.7015 8.33463 3.33333V2.66667H9.66797V3.33333C9.66797 3.7015 9.96647 4 10.3346 4C10.7028 4 11.0013 3.7015 11.0013 3.33333V2.66667H12.3346V3.33333C12.3346 3.7015 12.6331 4 13.0013 4C13.3695 4 13.668 3.7015 13.668 3.33333V2.66667H23.0013V3.33333C23.0013 3.7015 23.2998 4 23.668 4C24.0361 4 24.3346 3.7015 24.3346 3.33333V2.66667H25.668V3.33333C25.668 3.7015 25.9665 4 26.3346 4C26.7028 4 27.0013 3.7015 27.0013 3.33333V2.66667H28.3346V3.33333C28.3346 3.7015 28.6331 4 29.0013 4C29.3695 4 29.668 3.7015 29.668 3.33333V2.66667H31.0013V3.33333C31.0013 3.7015 31.2998 4 31.668 4C32.0361 4 32.3346 3.7015 32.3346 3.33333V2.66667H33.668V6Z" fill="#0054A3"/>
<path d="M31.0013 25.3333C26.9512 25.3333 23.668 28.6166 23.668 32.6666C23.668 36.7167 26.9512 40 31.0013 40C35.0514 40 38.3346 36.7167 38.3346 32.6666C38.3299 28.6186 35.0494 25.3381 31.0013 25.3333ZM31.0013 38.6667C27.6876 38.6667 25.0013 35.9803 25.0013 32.6666C25.0013 29.3529 27.6876 26.6666 31.0013 26.6666C34.3151 26.6666 37.0013 29.3529 37.0013 32.6666C36.9976 35.9788 34.3135 38.663 31.0013 38.6667Z" fill="#0054A3"/>
<path d="M34.7867 28.862C34.5284 28.6124 34.1187 28.6124 33.8604 28.862L30.9984 31.724L29.4697 30.1953C29.2049 29.9395 28.7829 29.9468 28.527 30.2117C28.2774 30.47 28.2774 30.8797 28.527 31.138L30.527 33.138C30.7874 33.3982 31.2094 33.3982 31.4697 33.138L34.803 29.8047C35.0589 29.5398 35.0515 29.1178 34.7867 28.862Z" fill="#0054A3"/>
</svg>
