<svg width="40" height="40" viewBox="0 0 40 40" fill="none" xmlns="http://www.w3.org/2000/svg">
<path d="M23.4939 30.4996V23.3275C23.4939 23.0048 23.2323 22.7432 22.9096 22.7432C22.5868 22.7432 22.3252 23.0048 22.3252 23.3275V30.4996C22.3252 30.8223 22.5868 31.0839 22.9096 31.0839C23.2323 31.0839 23.4939 30.8223 23.4939 30.4996Z" fill="#0054A3"/>
<path d="M39.227 7.79383H37.8187V5.19594C37.8187 4.80094 37.4973 4.47961 37.1023 4.47961H34.3616V0.973984C34.3616 0.436953 33.9247 0 33.3877 0H6.60812C6.07109 0 5.63414 0.436953 5.63414 0.973984V4.47953H3.10742C2.71242 4.47953 2.39109 4.80086 2.39109 5.19586V7.79383H0.76875C0.357734 7.79383 0.0234375 8.1282 0.0234375 8.53914V10.8248C0.0234375 11.2358 0.357812 11.5702 0.76875 11.5702H1.03328V39.4155C1.03328 39.7382 1.29492 39.9998 1.61766 39.9998H38.3781C38.7009 39.9998 38.9625 39.7382 38.9625 39.4155V27.5844C38.9625 27.2616 38.7009 27 38.3781 27C38.0553 27 37.7937 27.2616 37.7937 27.5844V38.8312H36.0963V33.8659V19.9614V14.7117C36.0963 14.224 35.6995 13.8272 35.2118 13.8272H25.1692H19.6041C19.2812 13.8272 19.0197 14.0888 19.0197 14.4116C19.0197 14.7343 19.2813 14.9959 19.6041 14.9959H24.5848V38.8312H15.4109V14.996H16.8882C17.211 14.996 17.4726 14.7344 17.4726 14.4116C17.4726 14.0889 17.2109 13.8273 16.8882 13.8273H14.8266H4.78398C4.29625 13.8273 3.89945 14.2241 3.89945 14.7118V38.8312H2.20203V11.5703H37.7937V27.7716C37.7937 28.0944 38.0553 28.356 38.378 28.356C38.7009 28.356 38.9624 28.0944 38.9624 27.7716V11.5702H39.2269C39.638 11.5702 39.9723 11.2359 39.9723 10.8249V8.53922C39.9723 8.1282 39.638 7.79383 39.227 7.79383ZM25.7536 14.996H34.9275V19.377H25.7536V14.996ZM25.7536 20.5458H34.9275V33.2814H25.7536V20.5458ZM25.7536 34.4502H34.9275V38.8312H25.7536V34.4502ZM5.06828 14.996H14.2422V19.377H5.06828V14.996ZM5.06828 20.5458H14.2422V33.2814H5.06828V20.5458ZM5.06828 34.4502H14.2422V38.8312H5.06828V34.4502ZM34.3616 5.64836H36.6499V7.79383H34.3616V5.64836ZM6.80297 1.16883H33.1928V7.79391H6.80297V1.16883ZM3.55984 5.64836H5.63414V7.79383H3.55984V5.64836ZM38.8036 10.4015H1.19219V8.96266H38.8035L38.8036 10.4015Z" fill="#0054A3"/>
</svg>
