<svg width="40" height="40" viewBox="0 0 40 40" fill="none" xmlns="http://www.w3.org/2000/svg">
<path d="M39.1922 37.1359L2.86406 0.807813C2.74671 0.69069 2.58767 0.624938 2.42188 0.625H1.25C1.08424 0.625 0.925268 0.690848 0.808058 0.808058C0.690848 0.925269 0.625 1.08424 0.625 1.25V38.75C0.625 38.9158 0.690848 39.0747 0.808058 39.1919C0.925268 39.3092 1.08424 39.375 1.25 39.375H38.75C38.9158 39.375 39.0747 39.3092 39.1919 39.1919C39.3092 39.0747 39.375 38.9158 39.375 38.75V37.5781C39.3751 37.4123 39.3093 37.2533 39.1922 37.1359ZM38.125 38.125H35.625V36.875C35.625 36.7092 35.5592 36.5503 35.4419 36.4331C35.3247 36.3158 35.1658 36.25 35 36.25C34.8342 36.25 34.6753 36.3158 34.5581 36.4331C34.4408 36.5503 34.375 36.7092 34.375 36.875V38.125H31.875V37.5C31.875 37.3342 31.8092 37.1753 31.6919 37.0581C31.5747 36.9408 31.4158 36.875 31.25 36.875C31.0842 36.875 30.9253 36.9408 30.8081 37.0581C30.6908 37.1753 30.625 37.3342 30.625 37.5V38.125H28.125V36.875C28.125 36.7092 28.0592 36.5503 27.9419 36.4331C27.8247 36.3158 27.6658 36.25 27.5 36.25C27.3342 36.25 27.1753 36.3158 27.0581 36.4331C26.9408 36.5503 26.875 36.7092 26.875 36.875V38.125H24.375V37.5C24.375 37.3342 24.3092 37.1753 24.1919 37.0581C24.0747 36.9408 23.9158 36.875 23.75 36.875C23.5842 36.875 23.4253 36.9408 23.3081 37.0581C23.1908 37.1753 23.125 37.3342 23.125 37.5V38.125H20.625V36.875C20.625 36.7092 20.5592 36.5503 20.4419 36.4331C20.3247 36.3158 20.1658 36.25 20 36.25C19.8342 36.25 19.6753 36.3158 19.5581 36.4331C19.4408 36.5503 19.375 36.7092 19.375 36.875V38.125H16.875V37.5C16.875 37.3342 16.8092 37.1753 16.6919 37.0581C16.5747 36.9408 16.4158 36.875 16.25 36.875C16.0842 36.875 15.9253 36.9408 15.8081 37.0581C15.6908 37.1753 15.625 37.3342 15.625 37.5V38.125H13.125V36.875C13.125 36.7092 13.0592 36.5503 12.9419 36.4331C12.8247 36.3158 12.6658 36.25 12.5 36.25C12.3342 36.25 12.1753 36.3158 12.0581 36.4331C11.9408 36.5503 11.875 36.7092 11.875 36.875V38.125H9.375V37.5C9.375 37.3342 9.30915 37.1753 9.19194 37.0581C9.07473 36.9408 8.91576 36.875 8.75 36.875C8.58424 36.875 8.42527 36.9408 8.30806 37.0581C8.19085 37.1753 8.125 37.3342 8.125 37.5V38.125H5.625V36.875C5.625 36.7092 5.55915 36.5503 5.44194 36.4331C5.32473 36.3158 5.16576 36.25 5 36.25C4.83424 36.25 4.67527 36.3158 4.55806 36.4331C4.44085 36.5503 4.375 36.7092 4.375 36.875V38.125H1.875V35.625H3.125C3.29076 35.625 3.44973 35.5592 3.56694 35.4419C3.68415 35.3247 3.75 35.1658 3.75 35C3.75 34.8342 3.68415 34.6753 3.56694 34.5581C3.44973 34.4408 3.29076 34.375 3.125 34.375H1.875V31.875H2.5C2.66576 31.875 2.82473 31.8092 2.94194 31.6919C3.05915 31.5747 3.125 31.4158 3.125 31.25C3.125 31.0842 3.05915 30.9253 2.94194 30.8081C2.82473 30.6908 2.66576 30.625 2.5 30.625H1.875V28.125H3.125C3.29076 28.125 3.44973 28.0592 3.56694 27.9419C3.68415 27.8247 3.75 27.6658 3.75 27.5C3.75 27.3342 3.68415 27.1753 3.56694 27.0581C3.44973 26.9408 3.29076 26.875 3.125 26.875H1.875V24.375H2.5C2.66576 24.375 2.82473 24.3092 2.94194 24.1919C3.05915 24.0747 3.125 23.9158 3.125 23.75C3.125 23.5842 3.05915 23.4253 2.94194 23.3081C2.82473 23.1908 2.66576 23.125 2.5 23.125H1.875V20.625H3.125C3.29076 20.625 3.44973 20.5592 3.56694 20.4419C3.68415 20.3247 3.75 20.1658 3.75 20C3.75 19.8342 3.68415 19.6753 3.56694 19.5581C3.44973 19.4408 3.29076 19.375 3.125 19.375H1.875V16.875H2.5C2.66576 16.875 2.82473 16.8092 2.94194 16.6919C3.05915 16.5747 3.125 16.4158 3.125 16.25C3.125 16.0842 3.05915 15.9253 2.94194 15.8081C2.82473 15.6908 2.66576 15.625 2.5 15.625H1.875V13.125H3.125C3.29076 13.125 3.44973 13.0592 3.56694 12.9419C3.68415 12.8247 3.75 12.6658 3.75 12.5C3.75 12.3342 3.68415 12.1753 3.56694 12.0581C3.44973 11.9408 3.29076 11.875 3.125 11.875H1.875V9.375H2.5C2.66576 9.375 2.82473 9.30915 2.94194 9.19194C3.05915 9.07473 3.125 8.91576 3.125 8.75C3.125 8.58424 3.05915 8.42527 2.94194 8.30806C2.82473 8.19085 2.66576 8.125 2.5 8.125H1.875V5.625H3.125C3.29076 5.625 3.44973 5.55915 3.56694 5.44194C3.68415 5.32473 3.75 5.16576 3.75 5C3.75 4.83424 3.68415 4.67527 3.56694 4.55806C3.44973 4.44085 3.29076 4.375 3.125 4.375H1.875V1.875H2.16328L38.125 37.8367V38.125Z" fill="white"/>
<path d="M8.75 31.875H22.5C22.6236 31.875 22.7444 31.8384 22.8472 31.7697C22.95 31.701 23.0301 31.6034 23.0774 31.4892C23.1247 31.375 23.1371 31.2493 23.113 31.1281C23.0889 31.0068 23.0294 30.8955 22.9419 30.8081L9.19195 17.0581C9.10454 16.9707 8.99318 16.9111 8.87194 16.887C8.7507 16.8629 8.62503 16.8753 8.51082 16.9226C8.39661 16.9699 8.299 17.05 8.23032 17.1528C8.16165 17.2556 8.125 17.3764 8.125 17.5V31.25C8.125 31.4158 8.19085 31.5747 8.30806 31.692C8.42527 31.8092 8.58424 31.875 8.75 31.875ZM9.375 19.0088L20.9911 30.625H9.375V19.0088Z" fill="white"/>
<path d="M38.5702 21.7587L18.2405 1.42901C18.1233 1.31189 17.9644 1.24609 17.7987 1.24609C17.633 1.24609 17.4741 1.31189 17.3569 1.42901L12.053 6.73291C11.9359 6.85011 11.8701 7.00902 11.8701 7.17471C11.8701 7.3404 11.9359 7.49931 12.053 7.61651L32.3827 27.9462C32.4999 28.0633 32.6588 28.1291 32.8245 28.1291C32.9902 28.1291 33.1491 28.0633 33.2663 27.9462L38.5702 22.6423C38.6873 22.5251 38.7531 22.3662 38.7531 22.2005C38.7531 22.0348 38.6873 21.8759 38.5702 21.7587ZM32.8249 26.6204L32.3827 26.1782L32.8249 25.736C32.9421 25.6188 33.0079 25.4597 33.0078 25.294C33.0077 25.1282 32.9418 24.9692 32.8245 24.8521C32.7664 24.794 32.6975 24.748 32.6217 24.7166C32.5458 24.6853 32.4645 24.6691 32.3824 24.6692C32.2167 24.6692 32.0577 24.7352 31.9405 24.8524L31.4991 25.2939L30.6147 24.4103L31.9405 23.0845C32.0528 22.9663 32.1145 22.809 32.1124 22.646C32.1103 22.483 32.0446 22.3273 31.9294 22.2121C31.8141 22.0968 31.6584 22.0311 31.4954 22.029C31.3324 22.027 31.1751 22.0886 31.0569 22.2009L29.7312 23.5267L28.8468 22.6423L29.289 22.2009C29.4062 22.0837 29.4722 21.9248 29.4722 21.759C29.4723 21.5932 29.4065 21.4342 29.2894 21.3169C29.1722 21.1996 29.0132 21.1337 28.8474 21.1336C28.6817 21.1336 28.5226 21.1993 28.4054 21.3165L27.9632 21.7587L27.0796 20.8751L28.4054 19.5493C28.4634 19.4912 28.5095 19.4223 28.5409 19.3464C28.5724 19.2706 28.5885 19.1893 28.5885 19.1071C28.5885 19.025 28.5724 18.9437 28.5409 18.8678C28.5095 18.792 28.4634 18.723 28.4054 18.6649C28.3473 18.6069 28.2784 18.5608 28.2025 18.5294C28.1266 18.498 28.0453 18.4818 27.9632 18.4818C27.8811 18.4818 27.7997 18.498 27.7239 18.5294C27.648 18.5608 27.5791 18.6069 27.521 18.6649L26.1952 19.9907L25.3116 19.1071L25.7538 18.6649C25.871 18.5477 25.9368 18.3887 25.9367 18.2229C25.9366 18.0571 25.8707 17.8981 25.7534 17.781C25.6361 17.6638 25.4771 17.598 25.3113 17.5981C25.1456 17.5982 24.9866 17.6641 24.8694 17.7814L24.428 18.2228L23.5437 17.3392L24.8694 16.0134C24.9817 15.8952 25.0434 15.7379 25.0413 15.5749C25.0392 15.4119 24.9735 15.2562 24.8583 15.141C24.743 15.0257 24.5873 14.96 24.4243 14.958C24.2613 14.9559 24.104 15.0175 23.9858 15.1298L22.6601 16.4556L21.7765 15.5712L22.2179 15.1298C22.2759 15.0718 22.322 15.0029 22.3535 14.9271C22.3849 14.8512 22.4011 14.77 22.4011 14.6879C22.4012 14.6058 22.3851 14.5245 22.3537 14.4487C22.3223 14.3728 22.2763 14.3039 22.2183 14.2458C22.1602 14.1877 22.0914 14.1417 22.0155 14.1102C21.9397 14.0788 21.8584 14.0626 21.7764 14.0625C21.6943 14.0625 21.613 14.0786 21.5371 14.11C21.4613 14.1414 21.3923 14.1874 21.3343 14.2454L20.8921 14.6876L20.0085 13.804L21.3343 12.4782C21.4516 12.361 21.5174 12.2019 21.5174 12.036C21.5174 11.8702 21.4516 11.7111 21.3343 11.5939C21.217 11.4766 21.0579 11.4107 20.8921 11.4107C20.7262 11.4107 20.5672 11.4766 20.4499 11.5939L19.1241 12.9196L18.2405 12.036L18.6827 11.5939C18.7999 11.4766 18.8657 11.3176 18.8656 11.1518C18.8655 10.986 18.7996 10.827 18.6823 10.7099C18.6243 10.6518 18.5553 10.6058 18.4795 10.5745C18.4036 10.5431 18.3223 10.5269 18.2403 10.527C18.0745 10.5271 17.9155 10.593 17.7983 10.7103L17.3569 11.1517L16.4726 10.2681L17.7983 8.94229C17.9106 8.82412 17.9723 8.66678 17.9702 8.50381C17.9681 8.34083 17.9024 8.18512 17.7872 8.06986C17.6719 7.95461 17.5162 7.88894 17.3532 7.88686C17.1903 7.88477 17.0329 7.94643 16.9147 8.05869L15.589 9.38448L14.7054 8.5001L15.1468 8.05869C15.2048 8.00068 15.2509 7.93179 15.2824 7.85597C15.3138 7.78014 15.33 7.69887 15.3301 7.61678C15.3301 7.5347 15.314 7.45341 15.2826 7.37756C15.2512 7.30171 15.2052 7.23278 15.1472 7.17471C15.0892 7.11664 15.0203 7.07057 14.9444 7.03912C14.8686 7.00768 14.7873 6.99147 14.7053 6.99144C14.6232 6.9914 14.5419 7.00753 14.466 7.03891C14.3902 7.07029 14.3213 7.1163 14.2632 7.17432L13.821 7.61651L13.3796 7.17432L16.4726 4.08135L35.9179 23.5267L32.8249 26.6204ZM36.8022 22.6423L17.3569 3.19698L17.7983 2.75479L37.2437 22.2009L36.8022 22.6423Z" fill="white"/>
</svg>
