<svg width="40" height="40" viewBox="0 0 40 40" fill="none" xmlns="http://www.w3.org/2000/svg">
<path d="M3.11328 31.4454C2.78969 31.4454 2.52734 31.7077 2.52734 32.0313V36.8884C2.52734 37.2121 2.78969 37.4743 3.11328 37.4743H36.8898C37.2134 37.4743 37.4758 37.2121 37.4758 36.8884V25.6821C37.4758 25.3585 37.2134 25.0962 36.8898 25.0962H3.11328C2.78969 25.0962 2.52734 25.3585 2.52734 25.6821V32C2.52734 32.3237 2.78969 32.5859 3.11328 32.5859C3.43687 32.5859 3.69922 32.3237 3.69922 32V26.2681H36.3039V36.3024H3.69922V32.0313C3.69922 31.7077 3.43687 31.4454 3.11328 31.4454Z" fill="white"/>
<path d="M39.4141 14.8336C39.7377 14.8336 40 14.5713 40 14.2477V11.3719C40 9.46266 38.4471 7.90945 36.5383 7.90945H35.9837C36.904 7.07789 37.4834 5.87578 37.4834 4.5407C37.4834 2.03695 35.4464 7.8125e-05 32.9427 7.8125e-05C30.439 7.8125e-05 28.402 2.03695 28.402 4.5407C28.402 5.87578 28.9814 7.07789 29.9017 7.90945H29.3477C28.1504 7.90945 27.0934 8.52039 26.4713 9.44672C25.8494 8.52047 24.7924 7.90953 23.5952 7.90953H23.0409C23.9613 7.07797 24.5407 5.87578 24.5407 4.5407C24.5407 2.03687 22.5037 0 20 0C17.4963 0 15.4593 2.03688 15.4593 4.54063C15.4593 5.8757 16.0387 7.07789 16.9591 7.90945H16.4048C15.2076 7.90945 14.1505 8.52039 13.5286 9.44672C12.9066 8.52039 11.8496 7.90945 10.6525 7.90945H10.0982C11.0185 7.07789 11.598 5.8757 11.598 4.54063C11.598 2.03688 9.56102 0 7.05734 0C4.55359 0 2.51664 2.03688 2.51664 4.54063C2.51664 5.8757 3.09609 7.07789 4.01641 7.90945H3.46211C1.55305 7.90945 0 9.4625 0 11.3716V39.4141C0 39.7377 0.262344 40 0.585938 40H39.4141C39.7377 40 40 39.7377 40 39.4141V27.5C40 27.1763 39.7377 26.9141 39.4141 26.9141C39.0905 26.9141 38.8281 27.1763 38.8281 27.5V38.8281H1.17188V23.743H38.8281V27.9297C38.8281 28.2534 39.0905 28.5156 39.4141 28.5156C39.7377 28.5156 40 28.2534 40 27.9297V14.0177C40 13.6941 39.7377 13.4318 39.4141 13.4318C39.0905 13.4318 38.8281 13.6941 38.8281 14.0177V19.4141H36.8363V15.0179C36.8363 14.6942 36.5739 14.432 36.2503 14.432C35.9267 14.432 35.6644 14.6942 35.6644 15.0179V19.4141H30.0773V15.0179C30.0773 14.6942 29.8149 14.432 29.4913 14.432C29.1677 14.432 28.9054 14.6942 28.9054 15.0179V19.4141H27.0573V11.3716L27.0572 11.3665C27.0602 10.1059 28.0864 9.08133 29.3477 9.08133H29.6403L32.4327 14.0177C32.5367 14.2016 32.7316 14.3152 32.9427 14.3152C33.1539 14.3152 33.3488 14.2016 33.4527 14.0177L36.2452 9.08133H36.5384C37.801 9.08133 38.8282 10.1088 38.8282 11.3719V14.2477C38.8281 14.5713 39.0905 14.8336 39.4141 14.8336ZM21.956 9.08133L20 12.5391L18.044 9.08133H21.956ZM16.6312 4.54063C16.6312 2.68313 18.1424 1.17188 20 1.17188C21.8576 1.17188 23.3688 2.68313 23.3688 4.54063C23.3688 6.3982 21.8576 7.90945 20 7.90945C18.1424 7.90945 16.6312 6.3982 16.6312 4.54063ZM16.4048 9.08133H16.6977L19.49 14.0177C19.594 14.2016 19.7888 14.3152 20 14.3152C20.2112 14.3152 20.406 14.2016 20.51 14.0177L23.3023 9.08133H23.5952C24.8564 9.08133 25.8826 10.1059 25.8853 11.3664L25.8852 11.3718V19.4141H23.8935V15.0179C23.8935 14.6942 23.6312 14.432 23.3076 14.432C22.984 14.432 22.7216 14.6942 22.7216 15.0179V19.4141H17.1345V15.0179C17.1345 14.6942 16.8722 14.432 16.5486 14.432C16.225 14.432 15.9627 14.6942 15.9627 15.0179V19.4141H14.1145V11.3716C14.1146 10.1088 15.142 9.08133 16.4048 9.08133ZM9.01328 9.08133L7.05727 12.5391L5.10125 9.08133H9.01328ZM3.68852 4.54063C3.68852 2.68313 5.19977 1.17188 7.05727 1.17188C8.91477 1.17188 10.426 2.68313 10.426 4.54063C10.426 6.3982 8.91477 7.90945 7.05727 7.90945C5.19977 7.90945 3.68852 6.3982 3.68852 4.54063ZM3.46211 9.08133H3.75492L6.54734 14.0177C6.65133 14.2016 6.84617 14.3152 7.05734 14.3152C7.26852 14.3152 7.46336 14.2016 7.56734 14.0177L10.3597 9.08133H10.6526C11.9154 9.08133 12.9427 10.1087 12.9427 11.3715V19.4141H10.9508V15.0179C10.9508 14.6942 10.6884 14.432 10.3648 14.432C10.0412 14.432 9.77891 14.6942 9.77891 15.0179V19.4141H4.19187V15.0179C4.19187 14.6942 3.92953 14.432 3.60594 14.432C3.28234 14.432 3.02 14.6942 3.02 15.0179V19.4141H1.17188V11.3716C1.17188 10.1088 2.19922 9.08133 3.46211 9.08133ZM38.8281 22.5711H1.17188V20.5859H38.8281V22.5711ZM29.5739 4.54063C29.5739 2.68313 31.0852 1.17188 32.9427 1.17188C34.8002 1.17188 36.3115 2.68313 36.3115 4.54063C36.3115 6.39719 34.8019 7.90773 32.9457 7.90937H32.9397C31.0835 7.90773 29.5739 6.39727 29.5739 4.54063ZM32.9427 12.5391L30.9867 9.08125H32.9398L32.9428 9.08133L32.9459 9.08125H34.8989L32.9427 12.5391Z" fill="white"/>
</svg>
