<svg width="40" height="40" viewBox="0 0 40 40" fill="none" xmlns="http://www.w3.org/2000/svg">
<path d="M12.0346 0.0366211L2.57624 2.60376L0 12.0621L6.89121 18.9624L16.3587 16.3862L18.9258 6.92784L12.0346 0.0366211ZM14.8748 14.9023L7.43741 16.9324L2.03004 11.525L4.06008 4.0876L11.4975 2.06666L16.9049 7.47403L14.8748 14.9023Z" fill="white"/>
<path d="M12.4899 6.46356C10.9241 4.89779 8.38431 4.88868 6.81854 6.45446C5.25277 8.02023 5.24366 10.5601 6.80943 12.1258C7.56501 12.8814 8.58458 13.3002 9.65877 13.2911C11.8618 13.3002 13.6551 11.525 13.6733 9.322C13.6824 8.24781 13.2546 7.21913 12.4899 6.46356ZM11.2063 10.8696V10.8514C10.7967 11.261 10.2414 11.4795 9.65877 11.4795C8.46624 11.4977 7.47398 10.5418 7.45577 9.34021C7.44667 8.74849 7.67425 8.17498 8.093 7.76533C8.94871 6.90962 10.3415 6.90962 11.2063 7.76533C11.616 8.17498 11.8527 8.73939 11.8527 9.322C11.8527 9.90462 11.6251 10.4599 11.2063 10.8696Z" fill="white"/>
<path d="M35.129 12.5625H25.3703L20.5 21.0286L25.3703 29.4947H35.129L39.9993 21.0286L35.129 12.5625ZM34.0731 27.674H26.4263L22.6029 21.0286L26.4263 14.3832H34.0731L37.8965 21.0286L34.0731 27.674Z" fill="white"/>
<path d="M30.2502 16.7959C28.029 16.7959 26.2266 18.5893 26.2266 20.8105C26.2266 23.0317 28.0199 24.8341 30.2411 24.8341C32.4623 24.8341 34.2648 23.0408 34.2648 20.8196C34.2648 20.8196 34.2648 20.8196 34.2648 20.8105C34.2648 18.5984 32.4714 16.7959 30.2502 16.7959ZM30.2502 23.0135C29.0395 23.0135 28.0472 22.0303 28.0472 20.8196C28.0472 19.6088 29.0304 18.6166 30.2411 18.6166C31.4519 18.6166 32.4441 19.5997 32.4441 20.8105C32.4441 22.0212 31.461 23.0135 30.2502 23.0135Z" fill="white"/>
<path d="M14.8126 22.9404H5.05387L0.183594 31.452L5.05387 39.9636H14.8126L19.6829 31.452L14.8126 22.9404ZM13.7566 38.143H6.10986L2.28646 31.452L6.10986 24.7611H13.7566L17.58 31.452L13.7566 38.143Z" fill="white"/>
<path d="M9.93284 27.3828C7.71164 27.3828 5.91828 29.1762 5.90918 31.3974C5.90918 33.6186 7.70253 35.4119 9.92374 35.421C12.1449 35.421 13.9383 33.6277 13.9474 31.4065C13.9474 31.4065 13.9474 31.4065 13.9474 31.3974C13.9474 29.1853 12.1449 27.3919 9.93284 27.3828ZM9.93284 33.6004C8.7221 33.6004 7.73895 32.6172 7.72984 31.4065C7.72074 30.1957 8.713 29.2126 9.92374 29.2035C11.1345 29.2035 12.1176 30.1866 12.1267 31.3974C12.1267 32.6172 11.1436 33.6004 9.93284 33.6004Z" fill="white"/>
</svg>
