<svg width="40" height="40" viewBox="0 0 40 40" fill="none" xmlns="http://www.w3.org/2000/svg">
<g clip-path="url(#clip0)">
<path d="M40 1.93164L0.00151506 1.93164C0.00151506 1.93164 0 2.54602 0 3.30117V28.5885C0 29.3437 0.00151509 29.958 0.00151509 29.958H9.07086L9.22891 30.6935C9.39703 31.4764 10.033 32.0716 10.8023 32.2089C10.4861 32.7762 10.3051 33.4289 10.3051 34.1233C10.3051 36.2986 12.0748 38.0684 14.2502 38.0684C16.4255 38.0684 18.1952 36.2986 18.1952 34.1233C18.1952 33.4413 18.0212 32.7993 17.7153 32.2391H20.9917C20.6859 32.7993 20.5118 33.4413 20.5118 34.1233C20.5118 36.2986 22.2816 38.0684 24.4569 38.0684C26.6322 38.0684 28.4019 36.2986 28.4019 34.1233C28.4019 33.4367 28.2253 32.7908 27.9156 32.2279C28.7476 32.1423 29.4526 31.5239 29.631 30.6934L33.8938 10.8531H38.826V28.5885C38.826 28.6964 38.7383 28.7841 38.6304 28.7841H29.631C29.3068 28.7841 28.8959 29.0469 28.8959 29.3711C28.8959 29.6953 29.1758 29.958 29.5 29.958H39.9999C39.9999 29.958 39.9999 29.3437 39.9999 28.5885V3.30117C39.9999 1.93164 40 1.93164 40 1.93164ZM14.2502 36.8945C12.7221 36.8945 11.4789 35.6512 11.4789 34.1232C11.4789 32.5952 12.722 31.352 14.2502 31.352C15.7783 31.352 17.0214 32.5952 17.0214 34.1232C17.0214 35.6513 15.7782 36.8945 14.2502 36.8945ZM24.4569 36.8945C22.9289 36.8945 21.6857 35.6512 21.6857 34.1232C21.6857 32.5952 22.9289 31.352 24.4569 31.352C25.985 31.352 27.2282 32.5952 27.2282 34.1232C27.2281 35.6513 25.9849 36.8945 24.4569 36.8945ZM37.1569 9.67922C37.5505 9.32109 37.7978 8.805 37.7978 8.23227C37.7978 7.15344 36.9201 6.27578 35.8413 6.27578H33.9949C32.1873 6.27578 30.5996 7.55859 30.2198 9.32594L30.1439 9.67914H24.6013C24.2771 9.67914 24.0144 9.94188 24.0144 10.2661C24.0144 10.5903 24.2771 10.853 24.6013 10.853H29.8918L29.2961 13.6258H7.9832C7.3893 13.6258 6.83461 13.8908 6.46133 14.3527C6.08812 14.8146 5.94562 15.4126 6.07039 15.9933L7.51758 22.729C7.5857 23.046 7.89766 23.2472 8.21469 23.1796C8.53156 23.1115 8.73328 22.7994 8.66524 22.4825L7.21805 15.7468C7.1682 15.5145 7.22515 15.2752 7.37445 15.0905C7.52375 14.9058 7.74563 14.7998 7.9832 14.7998H29.7703C30.0469 14.7998 30.286 14.6066 30.3442 14.3361L31.3677 9.57258C31.6319 8.3425 32.7369 7.44977 33.9951 7.44977H35.8415C36.273 7.44977 36.6241 7.80086 36.6241 8.23234C36.6241 8.66383 36.273 9.01492 35.8415 9.01492H33.9951C33.4698 9.01492 33.0083 9.38773 32.8978 9.90148L28.4834 30.447C28.4065 30.8052 28.0848 31.0652 27.7184 31.0652H26.9459C26.2665 30.5113 25.4 30.1783 24.457 30.1783C23.5141 30.1783 22.6476 30.5113 21.9681 31.0652H16.7392C16.0598 30.5113 15.1933 30.1783 14.2503 30.1783C13.3073 30.1783 12.4409 30.5113 11.7614 31.0652H11.1419C10.7755 31.0652 10.4537 30.8052 10.3767 30.447L9.17211 24.8407C9.10406 24.5237 8.79227 24.3227 8.475 24.3901C8.15805 24.4582 7.95641 24.7703 8.02446 25.0872L8.81883 28.7842H1.36953C1.26164 28.7842 1.17391 28.6965 1.17391 28.5886V10.8531H21.8865C22.2107 10.8531 22.4734 10.5904 22.4734 10.2662C22.4734 9.94195 22.2107 9.67922 21.8865 9.67922H1.17391V3.30109C1.17391 3.1932 1.26172 3.10547 1.36953 3.10547H38.6305C38.7384 3.10547 38.8261 3.1932 38.8261 3.30109V9.67922H37.1569Z" fill="white"/>
<path d="M4.33594 7.51465C4.96804 7.51465 5.48046 7.00222 5.48046 6.37012C5.48046 5.73801 4.96804 5.22559 4.33594 5.22559C3.70383 5.22559 3.19141 5.73801 3.19141 6.37012C3.19141 7.00222 3.70383 7.51465 4.33594 7.51465Z" fill="white"/>
<path d="M7.81934 7.51514C8.45144 7.51514 8.96387 7.00271 8.96387 6.37061C8.96387 5.7385 8.45144 5.22607 7.81934 5.22607C7.18723 5.22607 6.6748 5.7385 6.6748 6.37061C6.6748 7.00271 7.18723 7.51514 7.81934 7.51514Z" fill="white"/>
<path d="M11.3008 7.51514C11.9329 7.51514 12.4453 7.00271 12.4453 6.37061C12.4453 5.7385 11.9329 5.22607 11.3008 5.22607C10.6687 5.22607 10.1562 5.7385 10.1562 6.37061C10.1562 7.00271 10.6687 7.51514 11.3008 7.51514Z" fill="white"/>
<path d="M21.078 26.165H17.626C17.4619 26.165 17.3054 26.2336 17.1943 26.3543C17.0832 26.475 17.0275 26.6367 17.0411 26.8001L17.219 28.9611C17.2441 29.2656 17.4985 29.5 17.8039 29.5H20.9001C21.2056 29.5 21.46 29.2657 21.485 28.9611L21.6629 26.8001C21.6764 26.6367 21.6208 26.475 21.5097 26.3543C21.3986 26.2337 21.242 26.165 21.078 26.165ZM20.3594 28.3261H18.3445L18.2632 27.3389H20.4408L20.3594 28.3261Z" fill="white"/>
<path d="M9.56885 19.2362C9.62697 19.5066 9.86604 19.6998 10.1427 19.6998H14.2503C14.5837 19.7071 14.8698 19.3964 14.8352 19.0648L14.6573 16.9037C14.6322 16.5993 14.3778 16.3649 14.0724 16.3649H9.67838C9.31565 16.3558 9.01948 16.7225 9.10455 17.0751L9.56885 19.2362ZM13.5318 17.5388L13.6131 18.5259H10.617L10.4049 17.5388H13.5318Z" fill="white"/>
<path d="M11.7862 26.165C11.6088 26.165 11.441 26.2452 11.3296 26.3831C11.2182 26.5211 11.1751 26.7019 11.2123 26.8753L11.6766 29.0363C11.7348 29.3068 11.9738 29.5 12.2505 29.5H15.0594C15.2234 29.5 15.38 29.4314 15.4911 29.3107C15.6022 29.19 15.6578 29.0283 15.6443 28.8649L15.4663 26.7039C15.4412 26.3994 15.1869 26.165 14.8814 26.165H11.7862ZM12.7247 28.3261L12.5126 27.3389H14.3408L14.422 28.3261H12.7247Z" fill="white"/>
<path d="M10.7315 21.2651C10.5541 21.2651 10.3864 21.3453 10.2749 21.4832C10.1635 21.6212 10.1204 21.802 10.1576 21.9754L10.6219 24.1365C10.68 24.4069 10.9191 24.6001 11.1958 24.6001H14.6541C14.8181 24.6001 14.9747 24.5315 15.0858 24.4108C15.1969 24.2901 15.2525 24.1285 15.239 23.9651L15.061 21.804C15.0359 21.4995 14.7816 21.2651 14.4761 21.2651H10.7315ZM11.67 23.4262L11.4579 22.439H13.9355L14.0167 23.4262H11.67Z" fill="white"/>
<path d="M16.4143 19.161C16.4394 19.4654 16.6938 19.6998 16.9992 19.6998H21.7092C22.0147 19.6998 22.2691 19.4655 22.2941 19.161L22.472 16.9999C22.5064 16.6683 22.2206 16.3576 21.887 16.3649H16.8212C16.488 16.3576 16.2015 16.6683 16.2363 16.9999L16.4143 19.161ZM21.2499 17.5388L21.1686 18.5259H17.5398L17.4585 17.5388H21.2499Z" fill="white"/>
<path d="M24.0526 24.6001H27.6638C27.9404 24.6001 28.1795 24.4069 28.2377 24.1365L28.702 21.9754C28.7392 21.802 28.6961 21.6212 28.5847 21.4832C28.4733 21.3453 28.3054 21.2651 28.1281 21.2651H24.2306C23.9251 21.2651 23.6707 21.4994 23.6457 21.804L23.4678 23.9651C23.4544 24.1285 23.5099 24.2901 23.621 24.4108C23.732 24.5315 23.8886 24.6001 24.0526 24.6001ZM24.7712 22.439H27.4016L27.1895 23.4262H24.6898L24.7712 22.439Z" fill="white"/>
<path d="M24.4549 19.6998H28.7154C28.9921 19.6998 29.2312 19.5066 29.2894 19.2362L29.7536 17.0751C29.8386 16.7225 29.5425 16.3559 29.1797 16.3649H24.6329C24.3274 16.3649 24.0729 16.5992 24.0479 16.9037L23.8701 19.0648C23.8353 19.3964 24.1215 19.7071 24.4549 19.6998ZM25.1734 17.5388H28.4533L28.2412 18.5259H25.0921L25.1734 17.5388Z" fill="white"/>
<path d="M21.4826 21.2651H17.2236C17.0596 21.2651 16.903 21.3337 16.7919 21.4544C16.6808 21.5751 16.6252 21.7368 16.6387 21.9002L16.8166 24.0613C16.8417 24.3658 17.0961 24.6001 17.4015 24.6001H21.3046C21.6101 24.6001 21.8646 24.3658 21.8896 24.0613L22.0675 21.9002C22.0809 21.7368 22.0253 21.5751 21.9143 21.4544C21.8032 21.3337 21.6466 21.2651 21.4826 21.2651ZM20.764 23.4262H17.9421L17.8609 22.439H20.8453L20.764 23.4262Z" fill="white"/>
<path d="M23.6532 29.5H26.6149C26.8916 29.5 27.1306 29.3068 27.1888 29.0363L27.6532 26.8753C27.6904 26.7019 27.6474 26.5211 27.5359 26.3831C27.4245 26.2452 27.2567 26.165 27.0793 26.165H23.8312C23.5257 26.165 23.2713 26.3993 23.2463 26.7039L23.0684 28.8649C23.0549 29.0283 23.1105 29.19 23.2216 29.3107C23.3327 29.4314 23.4892 29.5 23.6532 29.5ZM24.3718 27.339H26.3528L26.1407 28.3261H24.2905L24.3718 27.339Z" fill="white"/>
<path d="M14.2496 33.1162C13.6932 33.1162 13.2422 33.5673 13.2422 34.1236C13.2422 34.68 13.6932 35.1311 14.2496 35.1311C14.806 35.1311 15.257 34.68 15.257 34.1236C15.257 33.5673 14.806 33.1162 14.2496 33.1162Z" fill="white"/>
<path d="M24.4566 33.1162C23.9002 33.1162 23.4492 33.5673 23.4492 34.1236C23.4492 34.68 23.9002 35.1311 24.4566 35.1311C25.013 35.1311 25.4641 34.68 25.4641 34.1236C25.4641 33.5673 25.013 33.1162 24.4566 33.1162Z" fill="white"/>
</g>
<defs>
<clipPath id="clip0">
<rect width="40" height="40" fill="white"/>
</clipPath>
</defs>
</svg>
