<svg width="40" height="40" viewBox="0 0 40 40" fill="none" xmlns="http://www.w3.org/2000/svg">
<path d="M18.3594 7.10938C18.3594 5.38625 16.9575 3.98438 15.2344 3.98438C13.5113 3.98438 12.1094 5.38625 12.1094 7.10938C12.1094 8.8325 13.5113 10.2344 15.2344 10.2344C16.9575 10.2344 18.3594 8.8325 18.3594 7.10938ZM15.2344 8.67188C14.3728 8.67188 13.6719 7.97094 13.6719 7.10938C13.6719 6.24781 14.3728 5.54688 15.2344 5.54688C16.0959 5.54688 16.7969 6.24781 16.7969 7.10938C16.7969 7.97094 16.0959 8.67188 15.2344 8.67188Z" fill="#0054A3"/>
<path d="M8.75 7.10938C8.75 5.38625 7.34812 3.98438 5.625 3.98438C3.90188 3.98438 2.5 5.38625 2.5 7.10938C2.5 8.8325 3.90188 10.2344 5.625 10.2344C7.34812 10.2344 8.75 8.8325 8.75 7.10938ZM5.625 8.67188C4.76344 8.67188 4.0625 7.97094 4.0625 7.10938C4.0625 6.24781 4.76344 5.54688 5.625 5.54688C6.48656 5.54688 7.1875 6.24781 7.1875 7.10938C7.1875 7.97094 6.48656 8.67188 5.625 8.67188Z" fill="#0054A3"/>
<path d="M27.8906 7.10938C27.8906 5.38625 26.4887 3.98438 24.7656 3.98438C23.0425 3.98438 21.6406 5.38625 21.6406 7.10938C21.6406 8.8325 23.0425 10.2344 24.7656 10.2344C26.4887 10.2344 27.8906 8.8325 27.8906 7.10938ZM24.7656 8.67188C23.9041 8.67188 23.2031 7.97094 23.2031 7.10938C23.2031 6.24781 23.9041 5.54688 24.7656 5.54688C25.6272 5.54688 26.3281 6.24781 26.3281 7.10938C26.3281 7.97094 25.6272 8.67188 24.7656 8.67188Z" fill="#0054A3"/>
<path d="M37.5 7.10938C37.5 5.38625 36.0981 3.98438 34.375 3.98438C32.6519 3.98438 31.25 5.38625 31.25 7.10938C31.25 8.8325 32.6519 10.2344 34.375 10.2344C36.0981 10.2344 37.5 8.8325 37.5 7.10938ZM34.375 8.67188C33.5134 8.67188 32.8125 7.97094 32.8125 7.10938C32.8125 6.24781 33.5134 5.54688 34.375 5.54688C35.2366 5.54688 35.9375 6.24781 35.9375 7.10938C35.9375 7.97094 35.2366 8.67188 34.375 8.67188Z" fill="#0054A3"/>
<path d="M34.375 10.2344C32.477 10.2344 30.5924 11.2334 29.5412 12.9341C28.5692 11.3238 26.792 10.2344 24.7656 10.2344C22.7277 10.2344 20.9633 11.3344 20 12.9169C19.0387 11.3377 17.2768 10.2344 15.2344 10.2344C13.2102 10.2344 11.4311 11.3234 10.4587 12.9341C9.40773 11.2336 7.52328 10.2344 5.625 10.2344C2.67281 10.2344 0 12.6184 0 15.7031V23.5156C0 23.947 0.349766 24.2969 0.78125 24.2969H2.5V35.2344C2.5 35.6658 2.84977 36.0156 3.28125 36.0156H7.96875C8.40023 36.0156 8.75 35.6658 8.75 35.2344V24.2969H12.1094V35.2344C12.1094 35.6658 12.4591 36.0156 12.8906 36.0156H17.5781C18.0096 36.0156 18.3594 35.6658 18.3594 35.2344V24.2969H21.6406V35.2344C21.6406 35.6658 21.9904 36.0156 22.4219 36.0156H27.1094C27.5409 36.0156 27.8906 35.6658 27.8906 35.2344V24.2969H31.25V35.2344C31.25 35.6658 31.5998 36.0156 32.0312 36.0156H36.7188C37.1502 36.0156 37.5 35.6658 37.5 35.2344V26.25C37.5 25.8186 37.1502 25.4688 36.7188 25.4688C36.2873 25.4688 35.9375 25.8186 35.9375 26.25V34.4531H32.8125V23.5156C32.8125 23.0842 32.4627 22.7344 32.0312 22.7344H30.3125V15.7031C30.3125 13.5857 32.1729 11.7969 34.375 11.7969C36.5771 11.7969 38.4375 13.5857 38.4375 15.7031V22.7344H36.7188C36.2873 22.7344 35.9375 23.0842 35.9375 23.5156V26.25C35.9375 26.6814 36.2873 27.0312 36.7188 27.0312C37.1502 27.0312 37.5 26.6814 37.5 26.25V24.2969H39.2188C39.6502 24.2969 40 23.947 40 23.5156V15.7031C40 12.6187 37.3275 10.2344 34.375 10.2344ZM7.96875 22.7344C7.53727 22.7344 7.1875 23.0842 7.1875 23.5156V34.4531H4.0625V23.5156C4.0625 23.0842 3.71273 22.7344 3.28125 22.7344H1.5625V15.7031C1.5625 13.5857 3.42289 11.7969 5.625 11.7969C7.82711 11.7969 9.6875 13.5857 9.6875 15.7031V22.7344H7.96875ZM17.5781 22.7344C17.1466 22.7344 16.7969 23.0842 16.7969 23.5156V34.4531H13.6719V23.5156C13.6719 23.0842 13.3221 22.7344 12.8906 22.7344H11.25V15.7031C11.25 13.5492 13.0373 11.7969 15.2344 11.7969C17.4314 11.7969 19.2188 13.5492 19.2188 15.7031V22.7344H17.5781ZM27.1094 22.7344C26.6779 22.7344 26.3281 23.0842 26.3281 23.5156V34.4531H23.2031V23.5156C23.2031 23.0842 22.8534 22.7344 22.4219 22.7344H20.7812V15.7031C20.7812 13.5492 22.5686 11.7969 24.7656 11.7969C26.9627 11.7969 28.75 13.5492 28.75 15.7031V22.7344H27.1094Z" fill="#0054A3"/>
</svg>
