<svg width="40" height="40" viewBox="0 0 40 40" fill="none" xmlns="http://www.w3.org/2000/svg">
<path d="M39.8751 1.05406C40.089 0.754391 40.0195 0.33806 39.7198 0.124144C39.6068 0.0434775 39.4713 6.10352e-05 39.3324 6.10352e-05H28.6658C28.2976 6.10352e-05 27.9991 0.298476 27.999 0.666642C27.999 0.805558 28.0424 0.940974 28.1231 1.05406L31.3324 5.5467V8.34669L30.4178 8.71202C30.0746 8.84544 29.9045 9.23177 30.0379 9.57494C30.1384 9.83344 30.3884 10.0027 30.6658 10C30.7507 9.99994 30.8348 9.98385 30.9138 9.95269L31.3324 9.78469V11.0153L30.4178 11.3807C30.0757 11.5169 29.9089 11.9047 30.0452 12.2468C30.1464 12.5008 30.3924 12.6673 30.6658 12.6667C30.7507 12.6666 30.8348 12.6505 30.9138 12.6193L31.3324 12.4513V13.682L30.4178 14.0473C30.0757 14.1836 29.9089 14.5713 30.0452 14.9134C30.1464 15.1674 30.3924 15.3339 30.6658 15.3333C30.7507 15.3332 30.8348 15.3172 30.9138 15.286L31.3324 15.118V16.3487L30.4178 16.714C30.0757 16.8502 29.9089 17.238 30.0452 17.5801C30.1464 17.8341 30.3924 18.0006 30.6658 18C30.7507 17.9999 30.8348 17.9838 30.9138 17.9527L31.3324 17.7847V19.0153L30.4178 19.3806C30.0757 19.5169 29.9089 19.9046 30.0452 20.2467C30.1464 20.5007 30.3924 20.6672 30.6658 20.6666C30.7507 20.6666 30.8348 20.6505 30.9138 20.6193L31.3324 20.4513V21.682L30.4178 22.0473C30.0757 22.1835 29.9089 22.5713 30.0452 22.9134C30.1464 23.1674 30.3924 23.3339 30.6658 23.3333C30.7507 23.3332 30.8348 23.3171 30.9138 23.286L31.3324 23.118V24.3486L30.4178 24.714C30.0757 24.8502 29.9089 25.238 30.0452 25.58C30.1464 25.834 30.3924 26.0005 30.6658 26C30.7507 25.9999 30.8348 25.9838 30.9138 25.9526L31.3324 25.7846V27.0153L30.4178 27.3806C30.0757 27.5169 29.9089 27.9046 30.0452 28.2467C30.1464 28.5007 30.3924 28.6672 30.6658 28.6666C30.7507 28.6665 30.8348 28.6504 30.9138 28.6193L31.3324 28.4513V29.6819L30.4178 30.0473C30.0757 30.1835 29.9089 30.5713 30.0452 30.9133C30.1464 31.1673 30.3924 31.3338 30.6658 31.3333C30.7507 31.3332 30.8348 31.3171 30.9138 31.2859L31.3324 31.1179V32.3486L30.4178 32.7139C30.0757 32.8502 29.9089 33.2379 30.0452 33.58C30.1464 33.834 30.3924 34.0005 30.6658 33.9999C30.7507 33.9998 30.8348 33.9837 30.9138 33.9526L31.3324 33.7846V34.6666C31.3323 34.7569 31.3506 34.8463 31.3864 34.9292L33.3864 39.5959C33.5316 39.9342 33.9236 40.0909 34.2619 39.9457C34.4191 39.8783 34.5444 39.7531 34.6118 39.5959L36.6118 34.9292C36.6476 34.8463 36.6659 34.7569 36.6658 34.6666V31.6513L37.5804 31.2859C37.9225 31.1489 38.0888 30.7607 37.9518 30.4186C37.8148 30.0765 37.4265 29.9103 37.0844 30.0473L36.6658 30.2153V28.9846L37.5804 28.6193C37.9225 28.4823 38.0888 28.094 37.9518 27.7519C37.8148 27.4099 37.4265 27.2436 37.0844 27.3806L36.6658 27.5486V26.3179L37.5804 25.9526C37.9225 25.8156 38.0888 25.4274 37.9518 25.0853C37.8148 24.7432 37.4265 24.577 37.0844 24.714L36.6658 24.882V23.6513L37.5804 23.286C37.9225 23.149 38.0888 22.7607 37.9518 22.4186C37.8148 22.0765 37.4265 21.9103 37.0844 22.0473L36.6658 22.2153V20.9846L37.5804 20.6193C37.9225 20.4823 38.0888 20.0941 37.9518 19.752C37.8148 19.4099 37.4265 19.2436 37.0844 19.3806L36.6658 19.5486V18.318L37.5804 17.9527C37.9225 17.8157 38.0888 17.4274 37.9518 17.0853C37.8148 16.7432 37.4265 16.577 37.0844 16.714L36.6658 16.882V15.6513L37.5804 15.286C37.9225 15.149 38.0888 14.7607 37.9518 14.4187C37.8148 14.0766 37.4265 13.9103 37.0844 14.0473L36.6658 14.2153V12.9847L37.5804 12.6193C37.9225 12.4823 38.0888 12.0941 37.9518 11.752C37.8148 11.4099 37.4265 11.2437 37.0844 11.3807L36.6658 11.5487V10.318L37.5804 9.95269C37.9225 9.81569 38.0888 9.42744 37.9518 9.08536C37.8148 8.74327 37.4265 8.57702 37.0844 8.71402L36.6658 8.88202V7.65136L37.5804 7.28603C37.9225 7.14903 38.0888 6.76078 37.9518 6.4187C37.8148 6.07662 37.4265 5.91037 37.0844 6.04737L36.6658 6.21537V5.5487L39.8751 1.05406ZM35.3324 34.5332L33.9991 37.6439L32.6658 34.5332V33.2513L35.3324 32.1846V34.5332ZM35.3324 30.7519L32.6658 31.8186V30.5846L35.3324 29.5179V30.7519ZM35.3324 28.0853L32.6658 29.1519V27.9179L35.3324 26.8513V28.0853ZM35.3324 25.4186L32.6658 26.4853V25.2513L35.3324 24.1846V25.4186ZM35.3324 22.752L32.6658 23.8186V22.5846L35.3324 21.518V22.752ZM35.3324 20.0853L32.6658 21.152V19.918L35.3324 18.8513V20.0853ZM35.3324 17.4187L32.6658 18.4853V17.2513L35.3324 16.1847V17.4187ZM35.3324 14.752L32.6658 15.8187V14.5847L35.3324 13.518V14.752ZM35.3324 12.0853L32.6658 13.152V11.918L35.3324 10.8513V12.0853ZM35.3324 9.41869L32.6658 10.4853V9.25136L35.3324 8.18469V9.41869ZM35.4564 4.94604C35.3758 5.05912 35.3324 5.19454 35.3324 5.33337V6.7487L32.6658 7.81869V5.33337C32.6658 5.19446 32.6224 5.05904 32.5418 4.94604L29.9611 1.33339H38.0371L35.4564 4.94604Z" fill="#0054A3"/>
<path d="M25.877 1.05606C26.092 0.757143 26.0241 0.340561 25.7252 0.125562C25.6113 0.0436461 25.4746 -0.000270413 25.3343 6.29187e-05H14.6677C14.2996 6.29187e-05 14.0011 0.298478 14.001 0.666643C14.001 0.805559 14.0443 0.940975 14.1251 1.05406L17.3344 5.54671V8.34669L16.4197 8.71202C16.0766 8.84544 15.9065 9.23177 16.0399 9.57494C16.1404 9.83344 16.3904 10.0027 16.6677 10C16.7526 9.99994 16.8367 9.98385 16.9157 9.95269L17.3344 9.78469V11.0153L16.4197 11.3807C16.0776 11.5169 15.9109 11.9047 16.0471 12.2468C16.1483 12.5008 16.3943 12.6673 16.6677 12.6667C16.7526 12.6666 16.8367 12.6505 16.9157 12.6193L17.3344 12.4513V13.682L16.4197 14.0473C16.0776 14.1836 15.9109 14.5713 16.0471 14.9134C16.1483 15.1674 16.3943 15.3339 16.6677 15.3333C16.7526 15.3332 16.8367 15.3172 16.9157 15.286L17.3344 15.118V16.3487L16.4197 16.714C16.0776 16.8502 15.9109 17.238 16.0471 17.5801C16.1483 17.8341 16.3943 18.0006 16.6677 18C16.7526 17.9999 16.8367 17.9838 16.9157 17.9527L17.3344 17.7847V19.0153L16.4197 19.3806C16.0776 19.5169 15.9109 19.9046 16.0471 20.2467C16.1483 20.5007 16.3943 20.6672 16.6677 20.6666C16.7526 20.6666 16.8367 20.6505 16.9157 20.6193L17.3344 20.4513V21.682L16.4197 22.0473C16.0776 22.1835 15.9108 22.5713 16.0471 22.9134C16.1483 23.1674 16.3943 23.3339 16.6677 23.3333C16.7526 23.3332 16.8367 23.3171 16.9157 23.286L17.3344 23.118V24.3486L16.4197 24.714C16.0776 24.8502 15.9108 25.238 16.0471 25.58C16.1483 25.834 16.3943 26.0005 16.6677 26C16.7526 25.9999 16.8367 25.9838 16.9157 25.9526L17.3344 25.7846V27.0153L16.4197 27.3806C16.0776 27.5169 15.9108 27.9046 16.0471 28.2467C16.1483 28.5007 16.3943 28.6672 16.6677 28.6666C16.7526 28.6665 16.8367 28.6504 16.9157 28.6193L17.3344 28.4513V29.3333C17.3344 29.3879 17.3411 29.4423 17.3544 29.4953L19.3544 37.4952C19.4439 37.8524 19.806 38.0693 20.1631 37.9798C20.4017 37.9201 20.5879 37.7337 20.6477 37.4952L22.6477 29.4953C22.6609 29.4423 22.6677 29.3879 22.6677 29.3333V26.3179L23.5824 25.9526C23.9244 25.8156 24.0907 25.4274 23.9537 25.0853C23.8167 24.7432 23.4284 24.577 23.0864 24.714L22.6677 24.882V23.6513L23.5824 23.286C23.9244 23.149 24.0907 22.7607 23.9537 22.4186C23.8167 22.0765 23.4284 21.9103 23.0864 22.0473L22.6677 22.2153V20.9846L23.5824 20.6193C23.9244 20.4823 24.0907 20.0941 23.9537 19.752C23.8167 19.4099 23.4284 19.2436 23.0864 19.3806L22.6677 19.5486V18.318L23.5824 17.9527C23.9244 17.8157 24.0907 17.4274 23.9537 17.0853C23.8167 16.7432 23.4284 16.577 23.0864 16.714L22.6677 16.882V15.6513L23.5824 15.286C23.9244 15.149 24.0907 14.7607 23.9537 14.4187C23.8167 14.0766 23.4284 13.9103 23.0864 14.0473L22.6677 14.2153V12.9847L23.5824 12.6193C23.9244 12.4823 24.0907 12.0941 23.9537 11.752C23.8167 11.4099 23.4284 11.2437 23.0864 11.3807L22.6677 11.5487V10.318L23.5824 9.95269C23.9244 9.81569 24.0907 9.42744 23.9537 9.08536C23.8167 8.74327 23.4284 8.57703 23.0864 8.71403L22.6677 8.88202V7.65136L23.5824 7.28603C23.9244 7.14903 24.0907 6.76078 23.9537 6.4187C23.8167 6.07662 23.4284 5.91037 23.0864 6.04737L22.6677 6.21537V5.54871L25.877 1.05606ZM21.3344 29.2513L20.001 34.5846L18.6677 29.2513V27.9179L21.3344 26.8513V29.2513ZM21.3344 25.4153L18.6677 26.4819V25.2513L21.3344 24.1846V25.4153ZM21.3344 22.7486L18.6677 23.8153V22.5846L21.3344 21.518V22.7486ZM21.3344 20.082L18.6677 21.1486V19.918L21.3344 18.8513V20.082ZM21.3344 17.4153L18.6677 18.482V17.2513L21.3344 16.1847V17.4153ZM21.3344 14.7487L18.6677 15.8153V14.5847L21.3344 13.518V14.7487ZM21.3344 12.082L18.6677 13.1487V11.918L21.3344 10.8513V12.082ZM21.3344 9.41536L18.6677 10.482V9.25136L21.3344 8.18469V9.41536ZM21.4584 4.94871C21.3782 5.06104 21.3349 5.19537 21.3344 5.33337V6.7487L18.6677 7.81536V5.33337C18.6677 5.19446 18.6244 5.05904 18.5437 4.94604L15.9631 1.33339H24.039L21.4584 4.94871Z" fill="#0054A3"/>
<path d="M11.876 1.05697C12.091 0.758059 12.0231 0.341477 11.7242 0.126478C11.6104 0.0445616 11.4736 0.000645114 11.3334 0.000978446H0.666747C0.298499 0.000978446 0 0.299394 0 0.667559C0 0.806475 0.0433332 0.941891 0.124083 1.05497L3.3334 5.54762V8.34761L2.41874 8.71294C2.07557 8.84636 1.90549 9.23269 2.03891 9.57585C2.13941 9.83435 2.38941 10.0036 2.66674 10.0009C2.75166 10.0009 2.83574 9.98477 2.91474 9.9536L3.3334 9.7856V11.0163L2.41874 11.3816C2.07666 11.5178 1.90991 11.9056 2.04616 12.2477C2.14732 12.5017 2.39332 12.6682 2.66674 12.6676C2.75166 12.6675 2.83574 12.6514 2.91474 12.6203L3.3334 12.4523V13.6829L2.41874 14.0483C2.07666 14.1845 1.90991 14.5723 2.04616 14.9143C2.14732 15.1683 2.39332 15.3348 2.66674 15.3342C2.75166 15.3342 2.83574 15.3181 2.91474 15.2869L3.3334 15.1189V16.3496L2.41874 16.7149C2.07666 16.8512 1.90991 17.2389 2.04616 17.581C2.14732 17.835 2.39332 18.0015 2.66674 18.0009C2.75166 18.0008 2.83574 17.9847 2.91474 17.9536L3.3334 17.7856V19.0162L2.41874 19.3816C2.07666 19.5178 1.90991 19.9056 2.04616 20.2476C2.14732 20.5016 2.39332 20.6681 2.66674 20.6676C2.75166 20.6675 2.83574 20.6514 2.91474 20.6202L3.3334 20.4522V21.6829L2.41874 22.0482C2.07666 22.1845 1.90983 22.5722 2.04616 22.9143C2.14732 23.1683 2.39332 23.3348 2.66674 23.3342C2.75166 23.3341 2.83574 23.318 2.91474 23.2869L3.3334 23.1189V23.3342C3.3334 23.399 3.34282 23.4635 3.3614 23.5255L5.36139 30.1922C5.46698 30.5449 5.83848 30.7453 6.19122 30.6397C6.40622 30.5753 6.57439 30.4072 6.63872 30.1922L8.63871 23.5255C8.6573 23.4635 8.66671 23.399 8.66671 23.3342V20.9856L9.58138 20.6202C9.92346 20.4832 10.0897 20.095 9.95271 19.7529C9.81571 19.4108 9.42746 19.2446 9.08538 19.3816L8.66671 19.5496V18.3189L9.58138 17.9536C9.92346 17.8166 10.0897 17.4283 9.95271 17.0862C9.81571 16.7442 9.42746 16.5779 9.08538 16.7149L8.66671 16.8829V15.6522L9.58138 15.2869C9.92346 15.1499 10.0897 14.7617 9.95271 14.4196C9.81571 14.0775 9.42746 13.9113 9.08538 14.0483L8.66671 14.2163V12.9856L9.58138 12.6203C9.92346 12.4833 10.0897 12.095 9.95271 11.7529C9.81571 11.4108 9.42746 11.2446 9.08538 11.3816L8.66671 11.5496V10.3189L9.58138 9.9536C9.92346 9.8166 10.0897 9.42836 9.95271 9.08627C9.81571 8.74419 9.42746 8.57794 9.08538 8.71494L8.66671 8.88294V7.65228L9.58138 7.28695C9.92346 7.14995 10.0897 6.7617 9.95271 6.41962C9.81571 6.07754 9.42746 5.91129 9.08538 6.04829L8.66671 6.21629V5.54962L11.876 1.05697ZM7.33339 23.2362L6.00006 27.6809L4.66673 23.2362V22.5855L7.33339 21.5189V23.2362ZM7.33339 20.0829L4.66673 21.1496V19.9189L7.33339 18.8522V20.0829ZM7.33339 17.4162L4.66673 18.4829V17.2522L7.33339 16.1856V17.4162ZM7.33339 14.7496L4.66673 15.8162V14.5856L7.33339 13.5189V14.7496ZM7.33339 12.0829L4.66673 13.1496V11.9189L7.33339 10.8523V12.0829ZM7.33339 9.41627L4.66673 10.4829V9.25227L7.33339 8.18561V9.41627ZM7.45739 4.94962C7.37722 5.06196 7.33389 5.19629 7.33339 5.33429V6.74962L4.66673 7.81628V5.33429C4.66673 5.19537 4.6234 5.05996 4.54273 4.94696L1.96208 1.33431H10.038L7.45739 4.94962Z" fill="#0054A3"/>
</svg>
